<mxfile host="app.diagrams.net" agent="Mozilla/5.0 (Windows NT 10.0; Win64; x64) AppleWebKit/537.36 (KHTML, like Gecko) Chrome/128.0.0.0 YaBrowser/24.10.0.0 Safari/537.36" version="24.8.2">
  <diagram name="Страница — 1" id="N4c9ng75oxIX9Wh0qhU4">
    <mxGraphModel dx="2876" dy="2299" grid="1" gridSize="10" guides="1" tooltips="1" connect="1" arrows="1" fold="1" page="1" pageScale="1" pageWidth="827" pageHeight="1169" math="0" shadow="0">
      <root>
        <mxCell id="0" />
        <mxCell id="1" parent="0" />
        <mxCell id="PILwApM1goDQA18c89xY-1" value="Хомидов Сардорбек&lt;div style=&quot;font-size: 17px;&quot;&gt;Группа И-9-23&lt;/div&gt;&lt;div style=&quot;font-size: 17px;&quot;&gt;Тема:Платформа для обучения детей&lt;/div&gt;" style="rounded=1;whiteSpace=wrap;html=1;fillColor=#f5f5f5;gradientColor=#b3b3b3;strokeColor=#666666;fontSize=17;" parent="1" vertex="1">
          <mxGeometry x="-190" y="-480" width="320" height="140" as="geometry" />
        </mxCell>
        <mxCell id="PILwApM1goDQA18c89xY-4" value="" style="edgeStyle=orthogonalEdgeStyle;rounded=0;orthogonalLoop=1;jettySize=auto;html=1;entryX=0.5;entryY=1;entryDx=0;entryDy=0;" parent="1" source="PILwApM1goDQA18c89xY-2" target="PILwApM1goDQA18c89xY-5" edge="1">
          <mxGeometry relative="1" as="geometry">
            <mxPoint x="390" y="165" as="targetPoint" />
          </mxGeometry>
        </mxCell>
        <mxCell id="PILwApM1goDQA18c89xY-9" value="" style="edgeStyle=orthogonalEdgeStyle;rounded=0;orthogonalLoop=1;jettySize=auto;html=1;" parent="1" source="PILwApM1goDQA18c89xY-2" target="PILwApM1goDQA18c89xY-8" edge="1">
          <mxGeometry relative="1" as="geometry" />
        </mxCell>
        <mxCell id="PILwApM1goDQA18c89xY-13" value="" style="edgeStyle=orthogonalEdgeStyle;rounded=0;orthogonalLoop=1;jettySize=auto;html=1;" parent="1" source="PILwApM1goDQA18c89xY-2" target="PILwApM1goDQA18c89xY-12" edge="1">
          <mxGeometry relative="1" as="geometry" />
        </mxCell>
        <mxCell id="PILwApM1goDQA18c89xY-15" value="" style="edgeStyle=orthogonalEdgeStyle;rounded=0;orthogonalLoop=1;jettySize=auto;html=1;" parent="1" source="PILwApM1goDQA18c89xY-2" target="PILwApM1goDQA18c89xY-14" edge="1">
          <mxGeometry relative="1" as="geometry">
            <Array as="points">
              <mxPoint x="80" y="250" />
            </Array>
          </mxGeometry>
        </mxCell>
        <mxCell id="PILwApM1goDQA18c89xY-40" value="" style="edgeStyle=orthogonalEdgeStyle;rounded=0;orthogonalLoop=1;jettySize=auto;html=1;" parent="1" source="PILwApM1goDQA18c89xY-2" target="PILwApM1goDQA18c89xY-12" edge="1">
          <mxGeometry relative="1" as="geometry" />
        </mxCell>
        <mxCell id="PILwApM1goDQA18c89xY-41" value="" style="edgeStyle=orthogonalEdgeStyle;rounded=0;orthogonalLoop=1;jettySize=auto;html=1;" parent="1" source="PILwApM1goDQA18c89xY-2" target="PILwApM1goDQA18c89xY-12" edge="1">
          <mxGeometry relative="1" as="geometry" />
        </mxCell>
        <mxCell id="PILwApM1goDQA18c89xY-2" value="Пользователь&lt;div&gt;&lt;br&gt;&lt;/div&gt;" style="shape=umlActor;verticalLabelPosition=bottom;verticalAlign=top;html=1;outlineConnect=0;fillColor=#ec0909;strokeColor=#b46504;" parent="1" vertex="1">
          <mxGeometry x="360" y="245" width="60" height="70" as="geometry" />
        </mxCell>
        <mxCell id="PILwApM1goDQA18c89xY-5" value="&lt;span style=&quot;font-size: 14px;&quot;&gt;Вводит свои данные&lt;/span&gt;" style="ellipse;whiteSpace=wrap;html=1;fillColor=#1ba1e2;fontColor=#ffffff;strokeColor=#006EAF;" parent="1" vertex="1">
          <mxGeometry x="330" y="47.5" width="120" height="90" as="geometry" />
        </mxCell>
        <mxCell id="PILwApM1goDQA18c89xY-8" value="&lt;span style=&quot;font-size: 20px;&quot;&gt;Работает на платформе&lt;/span&gt;" style="rounded=1;whiteSpace=wrap;html=1;verticalAlign=top;fillColor=#60a917;fontColor=#ffffff;strokeColor=#2D7600;" parent="1" vertex="1">
          <mxGeometry x="550" y="310" width="120" height="60" as="geometry" />
        </mxCell>
        <mxCell id="PILwApM1goDQA18c89xY-12" value="&lt;div style=&quot;&quot;&gt;&lt;font style=&quot;font-size: 16px;&quot;&gt;&lt;br&gt;&lt;/font&gt;&lt;/div&gt;&lt;div style=&quot;&quot;&gt;&lt;font style=&quot;font-size: 16px;&quot;&gt;Написать свои предпочтение&lt;/font&gt;&lt;/div&gt;" style="shape=hexagon;perimeter=hexagonPerimeter2;whiteSpace=wrap;html=1;fixedSize=1;verticalAlign=top;fillColor=#a20025;fontColor=#ffffff;strokeColor=#6F0000;" parent="1" vertex="1">
          <mxGeometry x="330" y="385" width="120" height="95" as="geometry" />
        </mxCell>
        <mxCell id="PILwApM1goDQA18c89xY-14" value="&lt;span style=&quot;font-size: 19px;&quot;&gt;Участвовать на онлайн обучения&lt;/span&gt;" style="whiteSpace=wrap;html=1;verticalAlign=top;fillColor=#6a00ff;fontColor=#ffffff;strokeColor=#3700CC;" parent="1" vertex="1">
          <mxGeometry x="20" y="90" width="170" height="90" as="geometry" />
        </mxCell>
        <mxCell id="PILwApM1goDQA18c89xY-18" value="" style="endArrow=classic;html=1;rounded=0;exitX=0;exitY=1;exitDx=0;exitDy=0;exitPerimeter=0;entryX=0.858;entryY=0.113;entryDx=0;entryDy=0;entryPerimeter=0;" parent="1" source="PILwApM1goDQA18c89xY-2" target="PILwApM1goDQA18c89xY-19" edge="1">
          <mxGeometry width="50" height="50" relative="1" as="geometry">
            <mxPoint x="350" y="300" as="sourcePoint" />
            <mxPoint x="300" y="360" as="targetPoint" />
          </mxGeometry>
        </mxCell>
        <mxCell id="PILwApM1goDQA18c89xY-19" value="&lt;span style=&quot;font-size: 13px;&quot;&gt;Выбрать платформу&lt;/span&gt;" style="shape=hexagon;perimeter=hexagonPerimeter2;whiteSpace=wrap;html=1;fixedSize=1;fillColor=#1ba1e2;fontColor=#ffffff;strokeColor=#006EAF;" parent="1" vertex="1">
          <mxGeometry x="110" y="340" width="120" height="80" as="geometry" />
        </mxCell>
        <mxCell id="PILwApM1goDQA18c89xY-20" value="Заказчик" style="shape=umlActor;verticalLabelPosition=bottom;verticalAlign=top;html=1;outlineConnect=0;fillColor=#d5e8d4;gradientColor=#97d077;strokeColor=#82b366;" parent="1" vertex="1">
          <mxGeometry x="360" y="-190" width="50" height="70" as="geometry" />
        </mxCell>
        <mxCell id="PILwApM1goDQA18c89xY-36" value="" style="endArrow=classic;html=1;rounded=0;entryX=0.426;entryY=0.043;entryDx=0;entryDy=0;entryPerimeter=0;" parent="1" source="PILwApM1goDQA18c89xY-20" target="PILwApM1goDQA18c89xY-5" edge="1">
          <mxGeometry width="50" height="50" relative="1" as="geometry">
            <mxPoint x="370" y="-160" as="sourcePoint" />
            <mxPoint x="362.5" y="-50" as="targetPoint" />
          </mxGeometry>
        </mxCell>
        <mxCell id="PILwApM1goDQA18c89xY-43" value="" style="endArrow=classic;html=1;rounded=0;exitX=1;exitY=0.5;exitDx=0;exitDy=0;" parent="1" source="PILwApM1goDQA18c89xY-8" target="PILwApM1goDQA18c89xY-49" edge="1">
          <mxGeometry width="50" height="50" relative="1" as="geometry">
            <mxPoint x="560" y="240" as="sourcePoint" />
            <mxPoint x="710" y="100" as="targetPoint" />
          </mxGeometry>
        </mxCell>
        <mxCell id="PILwApM1goDQA18c89xY-44" value="" style="endArrow=classic;html=1;rounded=0;exitX=0.642;exitY=0.017;exitDx=0;exitDy=0;exitPerimeter=0;" parent="1" source="PILwApM1goDQA18c89xY-8" target="PILwApM1goDQA18c89xY-48" edge="1">
          <mxGeometry width="50" height="50" relative="1" as="geometry">
            <mxPoint x="760" y="280" as="sourcePoint" />
            <mxPoint x="700" y="40" as="targetPoint" />
          </mxGeometry>
        </mxCell>
        <mxCell id="PILwApM1goDQA18c89xY-45" value="" style="endArrow=classic;html=1;rounded=0;exitX=0.367;exitY=-0.067;exitDx=0;exitDy=0;exitPerimeter=0;" parent="1" source="PILwApM1goDQA18c89xY-8" target="PILwApM1goDQA18c89xY-47" edge="1">
          <mxGeometry width="50" height="50" relative="1" as="geometry">
            <mxPoint x="720" y="270" as="sourcePoint" />
            <mxPoint x="600" y="40" as="targetPoint" />
          </mxGeometry>
        </mxCell>
        <mxCell id="PILwApM1goDQA18c89xY-46" value="" style="endArrow=classic;html=1;rounded=0;exitX=0.583;exitY=1.067;exitDx=0;exitDy=0;exitPerimeter=0;" parent="1" source="PILwApM1goDQA18c89xY-8" target="PILwApM1goDQA18c89xY-50" edge="1">
          <mxGeometry width="50" height="50" relative="1" as="geometry">
            <mxPoint x="620" y="210" as="sourcePoint" />
            <mxPoint x="720" y="150" as="targetPoint" />
          </mxGeometry>
        </mxCell>
        <mxCell id="PILwApM1goDQA18c89xY-47" value="&lt;font style=&quot;font-size: 15px;&quot;&gt;Получить новые знание от предметам,&amp;nbsp; которые нравится&lt;/font&gt;" style="ellipse;whiteSpace=wrap;html=1;fillColor=#6a00ff;fontColor=#ffffff;strokeColor=#3700CC;" parent="1" vertex="1">
          <mxGeometry x="610" y="90" width="140" height="140" as="geometry" />
        </mxCell>
        <mxCell id="PILwApM1goDQA18c89xY-48" value="&lt;font style=&quot;font-size: 15px;&quot;&gt;Подготовиться к экзаменам и контрольному&lt;/font&gt;" style="ellipse;whiteSpace=wrap;html=1;fillColor=#60a917;fontColor=#ffffff;strokeColor=#2D7600;" parent="1" vertex="1">
          <mxGeometry x="760" y="140" width="120" height="140" as="geometry" />
        </mxCell>
        <mxCell id="PILwApM1goDQA18c89xY-49" value="&lt;font style=&quot;font-size: 14px;&quot;&gt;Развивать навыки самостоятельного обучения&lt;/font&gt;" style="ellipse;whiteSpace=wrap;html=1;fillColor=#1ba1e2;fontColor=#ffffff;strokeColor=#006EAF;" parent="1" vertex="1">
          <mxGeometry x="870" y="255" width="120" height="130" as="geometry" />
        </mxCell>
        <mxCell id="PILwApM1goDQA18c89xY-50" value="&lt;font style=&quot;font-size: 15px;&quot;&gt;Общаться другими детьми и найти друзей&lt;/font&gt;" style="ellipse;whiteSpace=wrap;html=1;fillColor=#d80073;fontColor=#ffffff;strokeColor=#A50040;" parent="1" vertex="1">
          <mxGeometry x="850" y="410" width="120" height="110" as="geometry" />
        </mxCell>
        <mxCell id="PILwApM1goDQA18c89xY-60" value="" style="endArrow=classic;html=1;rounded=0;exitX=0.025;exitY=0.599;exitDx=0;exitDy=0;exitPerimeter=0;" parent="1" source="PILwApM1goDQA18c89xY-12" target="PILwApM1goDQA18c89xY-63" edge="1">
          <mxGeometry width="50" height="50" relative="1" as="geometry">
            <mxPoint x="360" y="470" as="sourcePoint" />
            <mxPoint x="470" y="590" as="targetPoint" />
            <Array as="points">
              <mxPoint x="280" y="425" />
            </Array>
          </mxGeometry>
        </mxCell>
        <mxCell id="PILwApM1goDQA18c89xY-61" value="" style="endArrow=classic;html=1;rounded=0;exitX=1;exitY=0.5;exitDx=0;exitDy=0;" parent="1" source="PILwApM1goDQA18c89xY-12" target="PILwApM1goDQA18c89xY-62" edge="1">
          <mxGeometry width="50" height="50" relative="1" as="geometry">
            <mxPoint x="360" y="470" as="sourcePoint" />
            <mxPoint x="560" y="560" as="targetPoint" />
            <Array as="points">
              <mxPoint x="610" y="420" />
            </Array>
          </mxGeometry>
        </mxCell>
        <mxCell id="PILwApM1goDQA18c89xY-62" value="&lt;p style=&quot;line-height: 130%;&quot;&gt;&lt;font style=&quot;font-size: 15px;&quot;&gt;Написать предпочтенные формат&lt;/font&gt;&lt;/p&gt;" style="rhombus;whiteSpace=wrap;html=1;fillColor=#008a00;fontColor=#ffffff;strokeColor=#005700;" parent="1" vertex="1">
          <mxGeometry x="530" y="535" width="160" height="185" as="geometry" />
        </mxCell>
        <mxCell id="PILwApM1goDQA18c89xY-63" value="&lt;font style=&quot;font-size: 20px;&quot;&gt;написать предпочетаемое время&lt;/font&gt;" style="rhombus;whiteSpace=wrap;html=1;fillColor=#d80073;fontColor=#ffffff;strokeColor=#A50040;" parent="1" vertex="1">
          <mxGeometry x="200" y="500" width="180" height="240" as="geometry" />
        </mxCell>
        <mxCell id="PILwApM1goDQA18c89xY-66" value="Khan Academy" style="rhombus;whiteSpace=wrap;html=1;fillColor=#0050ef;fontColor=#ffffff;strokeColor=#001DBC;fontSize=19;" parent="1" vertex="1">
          <mxGeometry x="-150" y="310" width="220" height="130" as="geometry" />
        </mxCell>
        <mxCell id="PILwApM1goDQA18c89xY-67" value="&lt;font style=&quot;font-size: 15px;&quot;&gt;Coursera для детей&lt;/font&gt;" style="rhombus;whiteSpace=wrap;html=1;fillColor=#008a00;fontColor=#ffffff;strokeColor=#005700;" parent="1" vertex="1">
          <mxGeometry x="-250" y="440" width="140" height="130" as="geometry" />
        </mxCell>
        <mxCell id="PILwApM1goDQA18c89xY-68" value="&lt;font style=&quot;font-size: 15px;&quot;&gt;Duolingo&lt;/font&gt;" style="rhombus;whiteSpace=wrap;html=1;fillColor=#6a00ff;fontColor=#ffffff;strokeColor=#3700CC;" parent="1" vertex="1">
          <mxGeometry x="-150" y="540" width="160" height="85" as="geometry" />
        </mxCell>
        <mxCell id="PILwApM1goDQA18c89xY-69" value="&lt;font style=&quot;font-size: 14px;&quot;&gt;Minecraft education&lt;/font&gt;" style="rhombus;whiteSpace=wrap;html=1;fillColor=#e3c800;fontColor=#000000;strokeColor=#B09500;" parent="1" vertex="1">
          <mxGeometry x="15" y="585" width="130" height="115" as="geometry" />
        </mxCell>
        <mxCell id="PILwApM1goDQA18c89xY-70" value="" style="endArrow=classic;html=1;rounded=0;exitX=0.375;exitY=1;exitDx=0;exitDy=0;entryX=0.5;entryY=0;entryDx=0;entryDy=0;" parent="1" source="PILwApM1goDQA18c89xY-19" target="PILwApM1goDQA18c89xY-69" edge="1">
          <mxGeometry width="50" height="50" relative="1" as="geometry">
            <mxPoint x="360" y="470" as="sourcePoint" />
            <mxPoint x="410" y="420" as="targetPoint" />
          </mxGeometry>
        </mxCell>
        <mxCell id="PILwApM1goDQA18c89xY-71" value="" style="endArrow=classic;html=1;rounded=0;exitX=0;exitY=0.75;exitDx=0;exitDy=0;" parent="1" source="PILwApM1goDQA18c89xY-19" target="PILwApM1goDQA18c89xY-68" edge="1">
          <mxGeometry width="50" height="50" relative="1" as="geometry">
            <mxPoint x="130" y="330" as="sourcePoint" />
            <mxPoint x="120" y="385" as="targetPoint" />
          </mxGeometry>
        </mxCell>
        <mxCell id="PILwApM1goDQA18c89xY-72" value="" style="endArrow=classic;html=1;rounded=0;exitX=0;exitY=0.5;exitDx=0;exitDy=0;entryX=0.875;entryY=0.625;entryDx=0;entryDy=0;entryPerimeter=0;" parent="1" source="PILwApM1goDQA18c89xY-19" target="PILwApM1goDQA18c89xY-67" edge="1">
          <mxGeometry width="50" height="50" relative="1" as="geometry">
            <mxPoint x="360" y="470" as="sourcePoint" />
            <mxPoint x="410" y="420" as="targetPoint" />
            <Array as="points">
              <mxPoint x="-10" y="440" />
            </Array>
          </mxGeometry>
        </mxCell>
        <mxCell id="PILwApM1goDQA18c89xY-73" value="" style="endArrow=classic;html=1;rounded=0;exitX=0.5;exitY=0;exitDx=0;exitDy=0;" parent="1" source="PILwApM1goDQA18c89xY-19" target="PILwApM1goDQA18c89xY-66" edge="1">
          <mxGeometry width="50" height="50" relative="1" as="geometry">
            <mxPoint x="360" y="470" as="sourcePoint" />
            <mxPoint x="410" y="420" as="targetPoint" />
          </mxGeometry>
        </mxCell>
        <mxCell id="PILwApM1goDQA18c89xY-77" value="&lt;font style=&quot;font-size: 16px;&quot;&gt;Участвовать в интерактивной элементах&lt;/font&gt;" style="rounded=1;whiteSpace=wrap;html=1;fillColor=#6d8764;fontColor=#ffffff;strokeColor=#3A5431;" parent="1" vertex="1">
          <mxGeometry x="-230" y="-20" width="150" height="110" as="geometry" />
        </mxCell>
        <mxCell id="PILwApM1goDQA18c89xY-78" value="&lt;font style=&quot;font-size: 17px;&quot;&gt;Общаться&amp;nbsp; с другими учениками&lt;/font&gt;" style="rounded=1;whiteSpace=wrap;html=1;fillColor=#60a917;fontColor=#ffffff;strokeColor=#2D7600;" parent="1" vertex="1">
          <mxGeometry x="-230" y="160" width="160" height="110" as="geometry" />
        </mxCell>
        <mxCell id="PILwApM1goDQA18c89xY-82" value="" style="endArrow=classic;html=1;rounded=0;exitX=0.412;exitY=0;exitDx=0;exitDy=0;entryX=1;entryY=0.5;entryDx=0;entryDy=0;exitPerimeter=0;" parent="1" source="PILwApM1goDQA18c89xY-14" target="PILwApM1goDQA18c89xY-77" edge="1">
          <mxGeometry width="50" height="50" relative="1" as="geometry">
            <mxPoint x="350" y="210" as="sourcePoint" />
            <mxPoint x="400" y="160" as="targetPoint" />
            <Array as="points">
              <mxPoint x="90" y="35" />
            </Array>
          </mxGeometry>
        </mxCell>
        <mxCell id="PILwApM1goDQA18c89xY-83" value="" style="endArrow=classic;html=1;rounded=0;exitX=0.25;exitY=1;exitDx=0;exitDy=0;entryX=1;entryY=0.75;entryDx=0;entryDy=0;" parent="1" source="PILwApM1goDQA18c89xY-14" target="PILwApM1goDQA18c89xY-78" edge="1">
          <mxGeometry width="50" height="50" relative="1" as="geometry">
            <mxPoint x="350" y="210" as="sourcePoint" />
            <mxPoint x="400" y="160" as="targetPoint" />
          </mxGeometry>
        </mxCell>
        <mxCell id="PILwApM1goDQA18c89xY-85" value="Ученик" style="shape=umlActor;verticalLabelPosition=bottom;verticalAlign=top;html=1;outlineConnect=0;fillColor=#6a00ff;fontColor=#c83232;strokeColor=#3700CC;" parent="1" vertex="1">
          <mxGeometry x="-640" y="40" width="120" height="105" as="geometry" />
        </mxCell>
        <mxCell id="PILwApM1goDQA18c89xY-89" value="" style="endArrow=none;dashed=1;html=1;dashPattern=1 3;strokeWidth=2;rounded=0;entryX=0;entryY=0.5;entryDx=0;entryDy=0;" parent="1" source="PILwApM1goDQA18c89xY-85" target="PILwApM1goDQA18c89xY-14" edge="1">
          <mxGeometry width="50" height="50" relative="1" as="geometry">
            <mxPoint x="-320" y="180" as="sourcePoint" />
            <mxPoint x="-270" y="130" as="targetPoint" />
          </mxGeometry>
        </mxCell>
        <mxCell id="siJLyH6rFUhqfwaeg4fi-1" style="edgeStyle=orthogonalEdgeStyle;rounded=0;orthogonalLoop=1;jettySize=auto;html=1;exitX=0.5;exitY=0;exitDx=0;exitDy=0;exitPerimeter=0;" edge="1" parent="1" source="PILwApM1goDQA18c89xY-20" target="PILwApM1goDQA18c89xY-20">
          <mxGeometry relative="1" as="geometry" />
        </mxCell>
        <mxCell id="siJLyH6rFUhqfwaeg4fi-3" value="Text" style="text;html=1;align=center;verticalAlign=middle;resizable=0;points=[];autosize=1;strokeColor=none;fillColor=none;" vertex="1" parent="1">
          <mxGeometry x="875" y="318" width="50" height="30" as="geometry" />
        </mxCell>
      </root>
    </mxGraphModel>
  </diagram>
</mxfile>
